<?xml version="1.0" encoding="UTF-8"?>
<svg id="Layer_1" xmlns="http://www.w3.org/2000/svg" version="1.1" viewBox="0 0 470 83">
  <!-- Generator: Adobe Illustrator 30.0.0, SVG Export Plug-In . SVG Version: 2.1.1 Build 123)  -->
  <defs>
    <style>
      .st0 {
        fill: #ff1949;
        fill-rule: evenodd;
      }
    </style>
  </defs>
  <path class="st0" d="M31.2,47.5h15.9l-7.9-27.3-7.9,27.3ZM52.7,5c1.6,0,2.9,1.1,3.3,2.7l22,68c.2.7.3,1.4.3,2.2,0,1.2-1.1,2.2-2.3,2.2,0,0-.1,0-.2,0h-17.4c-1.4-.2-2.5-1.2-2.7-2.6l-3.4-11.9h-26.4l-3.4,11.9c-.2,1.4-1.3,2.4-2.7,2.6H3.5c-1.2.1-2.3-.8-2.5-2,0,0,0-.1,0-.2,0-.7.1-1.4.3-2.2L23.3,7.6c.4-1.5,1.7-2.6,3.3-2.6h26.1Z"/>
  <path class="st0" d="M103.3,77.8c-.1,1.3-1.3,2.3-2.6,2.2h-13.5c-1.3,0-2.4-1.1-2.5-2.4,0,0,0,0,0,0V29.4c0-1.3,1.1-2.4,2.4-2.4,0,0,0,0,0,0h12.8c1.3,0,2.4.9,2.6,2.2v3c3.2-4.5,9-6.2,13.3-6.2h3c1.2,0,2.9.4,2.9,3.2v13.1c.1,1.7-1.1,3.2-2.8,3.3-.2,0-.3,0-.5,0h-5.2c-7.1,0-9.9,1.8-9.9,7.9v24.1Z"/>
  <path class="st0" d="M136,42.8h-6.5c-1.4,0-2.5-1.2-2.5-2.6,0,0,0,0,0,0v-10.8c0-1.3,1.1-2.4,2.4-2.4h6.6v-13.1c0-1.4,1.2-2.5,2.6-2.5h13.4c1.3,0,2.4,1,2.5,2.4,0,0,0,0,0,0v13.1h13.2c1.4,0,2.5,1.1,2.6,2.5,0,0,0,0,0,0v10.8c0,1.4-1.2,2.5-2.6,2.6h-13.2v15.9c0,4.8,3.2,4.9,4.2,4.9,1.4,0,2.8-.4,4-1.3.7-.6,1.6-1,2.6-1.1.9,0,1.8.4,2.4,1.2l5.9,8.3c.5.7.8,1.4.9,2.2,0,.9-.4,1.7-1.1,2.2-3.9,4.3-11.6,5.9-17.3,5.9-9.8,0-20-4.8-20-20.5v-17.8Z"/>
  <path class="st0" d="M235.4,80.1h-13.5c-1.4,0-2.5-1.2-2.6-2.6V29.5c0-1.4,1.1-2.5,2.5-2.5,0,0,0,0,0,0h13.5c1.3,0,2.4,1,2.5,2.4,0,0,0,0,0,0v48c0,1.4-1.1,2.5-2.5,2.6,0,0,0,0,0,0"/>
  <path class="st0" d="M283.7,53.4c0-6.5-4-10.9-10.2-10.9s-10.4,4.4-10.4,10.9v24.3c-.1,1.3-1.3,2.3-2.6,2.2h-13.5c-1.3,0-2.4-1-2.5-2.4,0,0,0,0,0,0V29.4c0-1.3,1.1-2.4,2.4-2.4,0,0,0,0,0,0h13.5c1.3,0,2.4.9,2.6,2.2v1.9c3.2-3.1,8.1-5.8,16-5.8,16.7,0,23.2,12.2,23.2,26.6v25.8c-.1,1.3-1.3,2.3-2.6,2.2h-13.4c-1.3,0-2.4-.9-2.6-2.2v-24.3Z"/>
  <path class="st0" d="M336.8,42.6c-6-.1-11,4.7-11.2,10.7-.1,6,4.7,11,10.7,11.2,6,.1,11-4.7,11.2-10.7,0,0,0-.2,0-.2,0-6-4.7-10.9-10.7-10.9,0,0,0,0,0,0M350.1,5h13.4c1.3,0,2.5,1,2.5,2.4,0,0,0,0,0,0v70.1c0,1.3-1.1,2.4-2.4,2.4,0,0,0,0,0,0h-13.4c-1.3,0-2.4-1-2.5-2.4,0,0,0,0,0,0v-1.5c-2.7,3.3-7.4,5.7-13.7,5.7-13.5,0-26.5-10.8-26.5-28.3s13.1-28,26.4-28,11.6,2.5,13.8,5.4V7.4c0-1.3,1.1-2.4,2.5-2.4"/>
  <path class="st0" d="M450.6,77.8c-.1,1.3-1.3,2.3-2.6,2.2h-13.5c-1.3,0-2.5-1-2.5-2.4,0,0,0,0,0,0V29.4c0-1.3,1.1-2.4,2.4-2.4,0,0,0,0,0,0h12.8c1.3,0,2.4.9,2.6,2.2v3c3.2-4.5,9-6.2,13.3-6.2h3c1.2,0,2.9.4,2.9,3.2v13.1c.1,1.7-1.1,3.2-2.8,3.3-.2,0-.3,0-.5,0h-5.2c-7.1,0-9.9,1.8-9.9,7.9v24.1Z"/>
  <path class="st0" d="M390.5,47.3s.8-7.8,9.5-7.8,9.4,7.8,9.4,7.8h-18.9ZM399.9,25.4c-16.4,0-28.1,12.6-28.1,28.5s10.9,27.8,28.4,27.8,20-4.1,24.1-11.6c.6-.9.3-2-.6-2.6,0,0,0,0,0,0,0,0-9.8-6.2-11.2-7-.9-.6-2.1-.4-2.8.5,0,0,0,0,0,.1-2.2,3-5.7,4.8-9.4,4.8-5.8,0-9.5-3.7-9.9-8.8h33.1c2.4,0,3.1-1.4,3.1-2.9v-2.3c0-13-9.8-26.5-26.7-26.5"/>
  <path class="st0" d="M186,80c-1.4,0-2.5-1.1-2.5-2.4v-35h-6.4c-1.2.1-2.2-.7-2.3-1.9,0-.1,0-.2,0-.3v-11.4c0-1.2,1.1-2.2,2.3-2.2h6.4v-3.8c0-7.2,2.2-12.8,6.4-16.6,3.9-3.3,8.9-5,14-4.9,5.6,0,13.3,1.8,17,5.9.8.9.8,2.2,0,3.1l-7.7,8.4c-.9,1-2.4,1.1-3.4.3-.9-.7-1.9-1-3-1h-.1c-2.6.1-4.7,2.3-4.7,4.9v3.7h8.7c1.5.2,2.6,1.4,2.6,2.9v10.4c0,1.4-1.1,2.6-2.5,2.7,0,0,0,0,0,0h-8.7v35c.1,1.2-.8,2.3-2,2.4,0,0-.2,0-.2,0h-13.8Z"/>
</svg>