<?xml version="1.0" encoding="utf-8"?>
<!-- Generator: Adobe Illustrator 26.0.3, SVG Export Plug-In . SVG Version: 6.00 Build 0)  -->
<svg version="1.0" id="katman_1" xmlns="http://www.w3.org/2000/svg" xmlns:xlink="http://www.w3.org/1999/xlink" x="0px" y="0px"
	 viewBox="0 0 1765.3 1290.7" style="enable-background:new 0 0 1765.3 1290.7;" xml:space="preserve">
<g transform="translate(0.000000,1024.000000) scale(0.100000,-0.100000)">
	<path d="M8581.7,8900.7c-865-53-1600-271-2325-687c-533-306-1052-758-1452-1262c-407-515-718-1122-899-1755
		c-349-1223-231-2531,331-3675c408-829,1057-1553,1845-2056c687-438,1460-699,2310-781c168-16,702-16,870,0
		c1248,120,2343,634,3202,1504c714,723,1178,1594,1378,2583c226,1117,77,2259-425,3280c-646,1312-1843,2297-3250,2675
		c-291,78-593,132-890,160C9157.7,8897.7,8687.7,8907.7,8581.7,8900.7z M9366.7,8662.7c593-71,1094-218,1625-476
		c781-380,1493-1018,1964-1758c116-182,162-265,264-467c253-506,416-1069,484-1665c25-220,25-800,0-1020c-101-891-421-1714-934-2403
		c-474-636-1094-1154-1778-1487c-531-258-1036-406-1625-476c-183-21-699-30-900-15c-1191,91-2271,589-3115,1435
		c-815,818-1307,1880-1410,3041c-29,336-15,792,35,1133c118,791,436,1562,907,2195c413,553,922,1007,1513,1347
		c582,335,1282,558,1940,619c63,6,133,13,155,15C8599.7,8690.7,9239.7,8677.7,9366.7,8662.7z"/>
	<path d="M8556.7,8218.7c-30-1-127-9-215-18c-837-82-1643-407-2310-931c-821-645-1391-1561-1595-2565c-28-140-66-384-72-463
		c-3-48-7-49,138,5c59,22,185,62,279,90c171,49,563,140,602,140c28,0,33,7,93,155c256,632,632,1345,958,1820
		c341,496,748,940,1131,1229c355,269,739,462,1044,526c61,12,75,21,30,17C8623.7,8222.7,8586.7,8220.7,8556.7,8218.7z"/>
	<path d="M10486.7,7879.7c90-73,247-240,313-333c37-52,101-162,142-245c153-308,224-596,244-989c29-562-85-1191-368-2027
		c-98-291-182-514-619-1644c-88-227-144-401-174-535c-20-94-23-130-22-340c1-330,26-438,116-497c36-24,51-28,118-28
		c72,0,83,3,171,47c228,115,521,364,1089,924c321,317,377,364,436,364c69,0,132-82,158-206c22-106,30-296,16-389
		c-50-333-337-802-705-1153c-570-544-1287-863-1890-839c-325,13-563,85-726,221c-166,137-281,396-325,726c-20,157-15,510,11,670
		c66,417,227,1038,425,1645c27,82,48,150,47,152c-3,2-845,38-1262,53c-159,6-471,13-691,17l-402,6l-6-29c-32-152-105-711-131-999
		c-42-464-54-695-75-1390c-7-250-12-314-29-384c-35-141-104-271-194-367l-29-32l109-75c622-433,1319-693,2093-782
		c196-23,553-30,755-16c311,22,528,57,826,131c1247,311,2312,1164,2885,2310c114,228,165,352,244,590c328,988,288,2103-109,3050
		c-429,1023-1225,1852-2221,2316c-90,42-186,84-214,95l-51,19L10486.7,7879.7z"/>
	<path d="M8711.7,6765.7c-252-26-512-125-725-277c-334-238-669-689-902-1216c-91-206-259-688-245-702c4-5,2106-43,2369-44h117l29,93
		c91,285,190,685,224,902c28,184,30,471,4,620c-45,251-141,424-293,525C9147.7,6761.7,8967.7,6792.7,8711.7,6765.7z"/>
	<path d="M4946.7,3359.7c-284-35-562-72-566-76c-14-13,63-426,115-620c45-167,196-596,206-585c2,2,17,73,34,158
		c52,255,246,1010,286,1113C5029.7,3367.7,5023.7,3368.7,4946.7,3359.7z"/>
</g>
</svg>
