<?xml version="1.0" encoding="UTF-8"?>
<svg id="Layer_1" data-name="Layer 1" xmlns="http://www.w3.org/2000/svg" viewBox="0 0 30 30">
  <defs>
    <style>
      .cls-1 {
        fill: none;
        opacity: .3;
      }

      .cls-2 {
        fill: #333;
      }
    </style>
  </defs>
  <rect class="cls-1" width="30" height="30"/>
  <g>
    <path class="cls-2" d="M2.91,9.97c-.47-.5-.72-1.06-.72-1.97,0-1.6,1.12-3.03,2.75-3.74l.41.63c-1.52.82-1.82,1.89-1.94,2.57.25-.13.57-.17.88-.14.82.08,1.47.75,1.47,1.59,0,.88-.72,1.6-1.6,1.6-.49,0-.96-.22-1.25-.54ZM7.48,9.97c-.47-.5-.72-1.06-.72-1.97,0-1.6,1.12-3.03,2.75-3.74l.41.63c-1.52.82-1.82,1.89-1.94,2.57.25-.13.57-.17.88-.14.82.08,1.47.75,1.47,1.59,0,.88-.72,1.6-1.6,1.6-.49,0-.96-.22-1.25-.54Z"/>
    <path class="cls-2" d="M12.76,17.21c-.25.67-.46,1.28-.65,1.91,1.03-.75,2.25-1.22,3.66-1.39,2.69-.34,5.08-2.11,6.29-4.34l-1.56-1.56,1.51-1.51c.36-.36.71-.71,1.07-1.07.46-.46.98-1.31,1.53-2.53-5.99.93-9.65,4.59-11.85,10.51ZM23.53,11.82l1.07,1.07c-1.07,3.21-4.28,6.42-8.56,6.96-2.86.36-4.64,2.32-5.35,5.89h-2.14c1.07-6.42,3.21-21.41,19.26-21.41-1.07,3.21-2.14,5.35-3.21,6.42-.36.36-.72.72-1.07,1.07Z"/>
  </g>
</svg>