<?xml version="1.0" encoding="UTF-8"?>
<svg id="Layer_1" xmlns="http://www.w3.org/2000/svg" version="1.1" viewBox="0 0 180.2 20">
  <!-- Generator: Adobe Illustrator 30.0.0, SVG Export Plug-In . SVG Version: 2.1.1 Build 123)  -->
  <defs>
    <style>
      .st0 {
        fill: #68c07f;
      }
    </style>
  </defs>
  <path class="st0" d="M16.9,15.2c0-.9-.3-1.8-.8-2.6l-2-2.9,2-2.9c.5-.7.8-1.7.8-2.6C16.9,1.9,15,0,12.7,0s-2.7.7-3.5,1.9l-1,1.4c-.4-1.9-2-3.3-4-3.3S0,2,0,4.4v10.9c0,2.4,1.9,4.4,4.2,4.4s3.6-1.3,4-3.2l.9,1.3c.8,1.2,2.2,1.9,3.5,1.9,2.4,0,4.3-2,4.3-4.4ZM18.2,4.7c0-2.5,2-4.7,4.6-4.7s4.6,2.2,4.5,4.7v10.2c0,2.5-2,4.7-4.6,4.7s-4.5-2.1-4.5-4.7V4.7ZM44.8,14.2c0-2.1-1-3.5-3-4.4,2-.9,3-2.3,3-4.4,0-3.2-2.5-5.4-6.6-5.4s-9.4,4.2-9.4,9.8,4,9.8,9.4,9.8,6.6-2.2,6.6-5.4ZM62.5,12.7c.5.8.8,1.7.8,2.6,0,2.4-1.9,4.4-4.3,4.4-1.3,0-2.7-.7-3.5-1.9l-.9-1.3c-.4,1.9-2,3.2-4,3.2s-4.2-2-4.2-4.4V4.4c0-2.4,1.8-4.4,4.2-4.4s3.7,1.4,4,3.3l1-1.4c.8-1.2,2.2-1.9,3.5-1.9,2.3,0,4.2,1.9,4.2,4.3s-.3,1.8-.8,2.6l-2,2.9,2,2.9ZM79.3,13.6c0-2-.9-3.4-2.4-4.7l-1.2-1.1c1.7-.3,2.8-1.4,2.8-3.2,0-2.9-2.2-4.7-6.9-4.7s-7.3,2.4-7.3,6.3,1,3.3,2.4,4.7l1.1,1.1h0c-2.1,0-3.6,1.3-3.6,3.3,0,2.9,2.3,4.7,7.3,4.7s7.8-2.5,7.8-6.4ZM103.1,16.2c1.1,2.3,2.6,3.4,4.4,3.4,3.3,0,5.7-3.2,4.2-6.7l-3.9-9.4c-.9-2.3-2.4-3.6-4.8-3.6s-3.8,1.3-4.8,3.6l-3.9,9.4c-1.5,3.5.9,6.7,4.2,6.7s3.3-1.1,4.4-3.4ZM113.5,5.2c0-3.2,1.6-4.9,4.6-4.9h5.5c3.3,0,5.9,2.6,5.9,6s-.7,3.3-1.9,4.3l1.6,2.7c.4.7.6,1.5.6,2.3,0,2.4-1.8,4.3-4.1,4.3s-2.8-.8-3.6-2.1l-.4-.8c-.5,1.7-2,2.9-3.9,2.9s-4.2-2-4.2-4.5V5.2ZM138.3,20c2.6,0,4.5-2,4.5-4.4v-6.8c2.1,0,3.8-1.9,3.8-4.2s-1.8-4.2-4-4.2h-8.5c-2.2,0-4,1.8-4,4.2s1.7,4.1,3.8,4.2v6.8c0,2.4,2,4.4,4.4,4.4ZM159.9,12.6c1.6.3,2.7,1.7,2.7,3.6s-1.6,3.8-3.6,3.8h-6.5c-3,0-4.6-1.7-4.6-4.9V5.2c0-3.2,1.6-4.9,4.6-4.9h6.5c2,0,3.6,1.7,3.6,3.8s-1.1,3.3-2.7,3.6c.7.5,1.2,1.3,1.2,2.4s-.4,1.9-1.2,2.4ZM168.1,20c-2.3,0-4.2-2-4.2-4.5V5.2c0-3.2,1.6-4.9,4.6-4.9h5.5c3.3,0,5.9,2.6,5.9,6s-.7,3.3-1.9,4.3l1.6,2.7c.4.7.6,1.5.6,2.3,0,2.4-1.8,4.3-4.1,4.3s-2.8-.8-3.6-2.1l-.4-.8c-.5,1.7-2,2.9-3.9,2.9ZM92.1,15.5c0,2.4-2,4.4-4.5,4.4s-4.4-2-4.4-4.4v-6.8c-2.1-.1-3.8-1.9-3.8-4.2s1.8-4.2,4.1-4.2h8.5c2.2,0,4.1,1.9,4.1,4.2s-1.7,4.1-3.8,4.2v6.8Z"/>
</svg>