<?xml version="1.0" encoding="UTF-8"?>
<svg xmlns="http://www.w3.org/2000/svg" xmlns:svg="http://www.w3.org/2000/svg" xmlns:sodipodi="http://sodipodi.sourceforge.net/DTD/sodipodi-0.dtd" xmlns:rdf="http://www.w3.org/1999/02/22-rdf-syntax-ns#" xmlns:inkscape="http://www.inkscape.org/namespaces/inkscape" xmlns:dc="http://purl.org/dc/elements/1.1/" xmlns:cc="http://creativecommons.org/ns#" version="1.1" viewBox="0 0 33.5 21.6">
  <!-- Generator: Adobe Illustrator 30.0.0, SVG Export Plug-In . SVG Version: 2.1.1 Build 123)  -->
  <defs>
    <style>
      .st0 {
        fill: #ff5e5b;
      }

      .st1 {
        fill: #fff;
        stroke: #29abe0;
        stroke-miterlimit: 10;
      }
    </style>
  </defs>
  <g id="svg15" inkscape:version="0.92.4 (5da689c313, 2019-01-14)" sodipodi:docname="ko-fi-ar21.svg">
    <path id="Rectangle-2" class="st1" d="M23.1,1.6h1.9c3.6,0,6.5,2.9,6.5,6.5v.4c0,3.6-2.9,6.5-6.5,6.5h-1.9v2c0,1.7-1.3,3-3,3H5.9c-1.7,0-3-1.3-3-3V3.1c0-.8.7-1.5,1.5-1.5h18.7ZM23.1,5.1v6.5h1.7c1.8,0,3.2-1.4,3.2-3.2s-1.4-3.2-3.2-3.2h-1.7Z" inkscape:connector-curvature="0"/>
    <g id="Group">
      <path id="Path-2" class="st0" d="M12.6,7.7c.5-1.4,1.6-2,3.3-2,2.6,0,3.6,3.2,2.2,5.4-.9,1.4-2.7,3.2-5.5,5.4-2.8-2.2-4.6-3.9-5.5-5.4-1.4-2.1-.4-5.4,2.2-5.4s2.8.7,3.3,2Z" inkscape:connector-curvature="0"/>
    </g>
  </g>
</svg>