<?xml version="1.0" encoding="UTF-8"?>
<svg id="Layer_1" xmlns="http://www.w3.org/2000/svg" version="1.1" viewBox="0 0 33.3 20">
  <!-- Generator: Adobe Illustrator 30.0.0, SVG Export Plug-In . SVG Version: 2.1.1 Build 123)  -->
  <path d="M23.6,5.1l2,2.3c.2.3.4.5.5.6.6.6.9,1.4.9,2.2,0,1-.7,1.6-1.3,2.3l-1.4,1.6-.7.8s0,0,0,.1c0,0,0,0,0,.1,0,0,0,0,0,0,0,0,0,0,.1,0h7.1c1.1,0,2.5.9,2.4,2.3,0,.6-.3,1.2-.7,1.7-.5.4-1.1.7-1.7.7h-11.1c-.7,0-2.7,0-3.3-1.6-.1-.4-.1-.7,0-1.1.2-.5.4-1,.7-1.5.6-.8,1.2-1.7,1.8-2.5.8-1.1,1.6-2.1,2.3-3.2,0,0,0,0,0-.1s0,0,0-.1l-2.8-3.3s0,0,0,0c0,0,0,0,0,0s0,0,0,0c0,0,0,0,0,0-.8,1-4.1,5.5-4.8,6.4-.7.9-2.5,1-3.4,0l-4.4-4.4s0,0-.1,0c0,0,0,0-.1,0,0,0,0,0,0,0,0,0,0,0,0,.1v8.4c0,.6-.2,1.2-.5,1.7s-.8.9-1.4,1.1c-.4.1-.8.2-1.1.1-.4,0-.7-.2-1.1-.4-.3-.2-.6-.5-.7-.8-.2-.3-.3-.7-.3-1.1V2.5c0-.5.2-1.1.6-1.5C.9.5,1.4.2,1.9,0c.5-.1.9-.1,1.4,0,.5.1.9.4,1.2.7l6.8,6.7s0,0,0,0c0,0,0,0,0,0,0,0,0,0,0,0,0,0,0,0,0,0L16.5.9c.2-.3.5-.5.8-.6.3-.1.7-.2,1-.2h12.6c.3,0,.7,0,1,.2.3.1.6.3.8.6.2.3.4.6.5.9,0,.3.1.7,0,1,0,.6-.4,1.1-.8,1.5-.5.4-1,.6-1.6.6h-7s0,0,0,0c0,0,0,0,0,0,0,0,0,0,0,.1s0,0,0,0Z"/>
</svg>