<?xml version="1.0" encoding="UTF-8"?>
<svg id="Layer_1" xmlns="http://www.w3.org/2000/svg" version="1.1" viewBox="0 0 100 100">
  <!-- Generator: Adobe Illustrator 30.0.0, SVG Export Plug-In . SVG Version: 2.1.1 Build 123)  -->
  <defs>
    <style>
      .st0 {
        fill: #fff;
      }

      .st1 {
        fill: #555;
      }
    </style>
  </defs>
  <path class="st1" d="M100,50c0,27.6-22.4,50-50,50S0,77.6,0,50,22.4,0,50,0s50,22.4,50,50Z"/>
  <path class="st0" d="M24.7,51.7l.2-.3,13-20.3c.2-.3.6-.3.8,0,2.2,4.9,4,10.9,3.2,14.7-.4,1.6-1.4,3.7-2.6,5.6-.1.3-.3.6-.5.8,0,.1-.2.2-.4.2h-13.4c-.4,0-.6-.4-.4-.7Z"/>
  <path class="st0" d="M82.6,55.5v3.2c0,.2-.1.3-.3.4-1,.4-4.5,2-5.9,4-3.7,5.1-6.5,12.4-12.7,12.4h-26.1c-9.2,0-16.7-7.5-16.7-16.8v-.3c0-.2.2-.4.4-.4h14.5c.3,0,.5.3.5.5-.1.9,0,1.9.5,2.8.9,1.8,2.7,2.8,4.6,2.8h7.2v-5.6h-7.1c-.4,0-.6-.4-.4-.7,0-.1.2-.2.3-.4.7-1,1.6-2.4,2.6-4.1.7-1.1,1.3-2.4,1.8-3.6.1-.2.2-.4.3-.7.1-.4.3-.8.4-1.1.1-.3.2-.6.3-.9.2-1,.3-2.1.3-3.3s0-.9,0-1.4c0-.5,0-1-.1-1.5,0-.4-.1-.9-.2-1.3-.1-.7-.2-1.3-.4-2v-.2c-.2-.4-.3-.9-.4-1.3-.4-1.4-.9-2.8-1.4-4-.2-.5-.4-1-.6-1.5-.3-.7-.6-1.4-.9-2-.1-.3-.3-.5-.4-.8-.1-.3-.3-.6-.4-.9-.1-.2-.2-.4-.3-.6l-.9-1.6c-.1-.2,0-.5.3-.4l5.5,1.5h0s0,0,0,0l.7.2.8.2h.3c0,0,0-3.2,0-3.2,0-1.6,1.3-2.9,2.8-2.9s1.5.3,2,.8c.5.5.8,1.2.8,2v4.8l.6.2s0,0,.1,0c.1.1.3.3.6.5.2.2.4.4.7.6.5.4,1.2,1,1.9,1.6.2.2.4.3.5.5.9.8,1.9,1.8,2.9,2.9.3.3.5.6.8.9.3.3.5.7.8,1,.3.4.7.9,1,1.3.1.2.3.4.4.7.4.6.7,1.2,1.1,1.8.1.3.3.6.4.9.4.8.7,1.6.8,2.5,0,.2,0,.4.1.5h0c0,.3,0,.5.1.8,0,.9,0,1.7-.1,2.6,0,.4-.2.7-.3,1.1-.1.3-.2.7-.4,1.1-.3.7-.7,1.4-1.1,2.1-.1.2-.3.5-.5.8-.2.3-.4.5-.5.8-.2.3-.5.6-.7.9-.2.3-.4.6-.7.9-.3.4-.7.8-1,1.2-.2.2-.4.5-.7.7-.2.2-.4.5-.7.7-.3.3-.6.6-.9.8l-.6.5c0,0-.2.1-.3.1h-4.4v5.6h5.5c1.2,0,2.4-.4,3.3-1.2.3-.3,1.7-1.5,3.4-3.3,0,0,.1-.1.2-.1l15.2-4.4c.3,0,.6.1.6.4Z"/>
</svg>