<?xml version="1.0" encoding="UTF-8"?>
<svg id="Layer_1" xmlns="http://www.w3.org/2000/svg" version="1.1" viewBox="0 0 90 13">
  <!-- Generator: Adobe Illustrator 30.0.0, SVG Export Plug-In . SVG Version: 2.1.1 Build 123)  -->
  <defs>
    <style>
      .st0 {
        fill-rule: evenodd;
      }

      .st0, .st1 {
        fill: #4c4c4c;
      }
    </style>
  </defs>
  <path class="st0" d="M0,.5v12h3.6v-4.1h5.3l1.9,4.1h3.7l-2.2-4.6,1.6-1.6v-3.6l-2.2-2.2H0ZM9.7,5.7H3.6v-2.4h6l.7.7v1l-.7.7Z"/>
  <path class="st0" d="M15,12.5L19.2.5h5.9l4.2,12h-3.5l-1.1-2.9h-5.2l-1.1,2.9h-3.5ZM20.5,6.9h3.3l-1.3-3.6h-.7l-1.3,3.6Z"/>
  <path class="st0" d="M29.9.5v12h3.6v-4.1h5.3l1.9,4.1h3.7l-2.2-4.6,1.6-1.6v-3.6l-2.2-2.2h-11.7ZM39.6,5.7h-6v-2.4h6l.7.7v1l-.7.7Z"/>
  <path class="st1" d="M45.2,12.5V2.5s0-2,0-2h3.5v2h0v8.8s0,1.2,0,1.2h-3.4Z"/>
  <path class="st0" d="M49.8.5v12h12.1l2.2-2.2v-2.6l-1.5-1.4,1-1v-2.7l-2.2-2.2h-11.5ZM59.3,5.3h-5.9v-2h5.9l.7.7v.7l-.7.7ZM59.7,9.8h-6.3v-1.9h6.3l.7.7v.6l-.7.7Z"/>
  <path class="st1" d="M65.1,12.5V.5h3.6v9h6.6v3h-10.2Z"/>
  <path class="st1" d="M76.4,12.5V.5h12.8v3h-9.2v1.7h8.5v2.7h-8.5v1.7h9.2v3h-12.8Z"/>
</svg>