<?xml version="1.0" encoding="UTF-8"?>
<svg id="Layer_1" xmlns="http://www.w3.org/2000/svg" version="1.1" viewBox="0 0 30 30">
  <!-- Generator: Adobe Illustrator 30.0.0, SVG Export Plug-In . SVG Version: 2.1.1 Build 123)  -->
  <defs>
    <style>
      .st0 {
        fill: #39c;
      }

      .st1 {
        fill: #f7bb14;
      }

      .st2 {
        fill: #da3b1f;
      }
    </style>
  </defs>
  <path class="st1" d="M15,5.2c.9-.2,1.9-.4,2.7-.5.4,0,.8,0,1.2,0,.7,0,1.3,0,2,.2-.4-.5-.9-1-1.4-1.5-.2,0-.3,0-.5,0-1.3,0-2.7.2-4,.5-.9.2-1.8.5-2.7.9-.8.3-1.6.7-2.4,1.2-.8.5-1.6,1-2.3,1.6-.4.8-.7,1.7-.9,2.6,1.2-1.2,2.5-2.2,3.9-3,1.4-.8,2.9-1.4,4.5-1.9ZM27.7,7.7c-.8-1.4-2.1-2.5-3.6-3.3-.8-.4-1.6-.6-2.5-.8.3.3.6.7.9,1.1.1.2.3.4.4.6.2,0,.4.2.6.3,1.3.6,2.3,1.5,3,2.7.6,1,.9,2.1.9,3.3,0,.4,0,.8-.1,1.3-.1.6-.3,1.3-.5,2-.4,1-.8,1.9-1.4,2.7,0,0,0,0,0,.1-.1,1-.3,1.9-.6,2.8.7-.7,1.2-1.4,1.8-2.2.3-.5.6-1,.9-1.5.3-.7.6-1.3.9-2,.4-1.1.6-2.2.6-3.3s-.3-2.8-1-4c0,0,0,0,0,0ZM15,24.8c-.9.2-1.9.4-2.7.5-.4,0-.8,0-1.2,0-.7,0-1.3,0-2-.2.4.6.9,1,1.4,1.5.2,0,.3,0,.5,0,1.3,0,2.6-.2,4-.5.9-.2,1.8-.5,2.7-.9.8-.3,1.6-.7,2.4-1.2.8-.5,1.6-1,2.3-1.6.4-.8.7-1.7.9-2.6-2.3,2.3-5.3,4-8.4,4.9,0,0,0,0,0,0ZM7.1,24.6c-.2,0-.4-.2-.6-.3-1.3-.6-2.3-1.5-3-2.7-.6-1-.9-2.1-.9-3.3,0-.4,0-.9.1-1.3.1-.7.3-1.3.5-2,.4-1,.8-1.9,1.4-2.7,0,0,0,0,0-.1.1-1,.3-1.9.6-2.8-.7.7-1.2,1.4-1.8,2.2-.3.5-.6,1-.9,1.5-.3.6-.6,1.3-.9,2-.4,1.1-.6,2.2-.6,3.3s.3,2.8,1,4c.8,1.4,2.1,2.5,3.6,3.3.8.4,1.6.6,2.5.8-.3-.4-.6-.7-.9-1.1-.1-.2-.3-.4-.4-.6,0,0,0,0,0,0Z"/>
  <path class="st0" d="M19.5,26.6c-.3.3-.6.5-1,.7-1.1.6-2.2,1-3.5,1s-2.4-.4-3.5-1c-.3-.2-.7-.4-1-.7-.5-.4-1-.9-1.4-1.5-.7-.8-1.2-1.7-1.6-2.6h0c-.8-.6-1.5-1.2-2.1-1.9.4,1.4,1,2.8,1.8,4,.1.2.3.4.4.6.3.4.6.8.9,1.1.7.8,1.5,1.5,2.4,2.1,1.3.8,2.7,1.2,4.1,1.2s2.9-.4,4.1-1.2c.9-.5,1.7-1.2,2.5-2.1-.7.1-1.4.2-2.1.2h0ZM5.9,15c0-1.7.2-3.4.6-4.9.2-.9.6-1.8.9-2.6.3-.7.7-1.4,1.2-2,.2-.2.3-.4.5-.6-.7.1-1.3.3-2,.5-.3.5-.6,1-.8,1.5-.4.8-.7,1.6-.9,2.5-.3.9-.5,1.8-.6,2.8-.3,1.9-.3,3.7,0,5.6.5.7,1.1,1.4,1.8,2.1-.4-1.6-.7-3.3-.6-4.9ZM11.5,2.7c1.1-.6,2.2-1,3.5-1s2.4.3,3.5,1c.3.2.7.4,1,.7.5.4,1,.9,1.4,1.5.6.8,1.2,1.6,1.6,2.6h0c.8.6,1.5,1.2,2.1,1.9-.4-1.4-1-2.8-1.8-4-.1-.2-.3-.4-.4-.6-.3-.4-.6-.8-.9-1.1-.7-.8-1.5-1.5-2.4-2.1-1.3-.8-2.7-1.2-4.1-1.2s-2.9.4-4.1,1.2c-.9.5-1.7,1.3-2.4,2.1.7-.1,1.4-.2,2.1-.2.3-.3.7-.5,1-.7,0,0,0,0,0,0ZM25.2,12.2h0c0,0-.2-.8-.2-.8l-1.6-1.3h0c.4,1.6.6,3.1.6,5s-.2,3.3-.6,4.8c0,0,0,0,0,0-.2.9-.6,1.7-.9,2.6-.3.7-.7,1.4-1.2,2-.2.2-.3.4-.5.6.7-.1,1.3-.3,2-.5.3-.5.6-1,.8-1.5.4-.8.7-1.6.9-2.5.3-.9.5-1.8.6-2.7,0,0,0,0,0,0,.1-.9.2-1.5.2-2.8s0-1.9-.2-2.8h0Z"/>
  <path class="st2" d="M6.5,19.9c-.7-.6-1.2-1.3-1.8-2.1,0,0,0,0,0-.1-.6-.8-1.1-1.7-1.4-2.7-.2.6-.4,1.3-.5,2,.3.5.5,1,.9,1.4.5.8,1.1,1.5,1.8,2.1.7.7,1.4,1.3,2.1,1.9.8.6,1.5,1.1,2.4,1.6.8.5,1.6.8,2.4,1.2.9,0,1.8-.2,2.7-.5-1.6-.4-3.1-1-4.5-1.8-1.4-.8-2.8-1.8-4-3,0,0,0,0,0,0ZM28.2,15c-.2.7-.5,1.3-.9,2,0,.5.1.9.1,1.3,0,1.2-.3,2.3-.8,3.3-.7,1.2-1.7,2.1-3,2.8-.2.1-.4.2-.7.3-.6.2-1.3.4-2,.5-.6.1-1.3.2-2,.2s-.8,0-1.1,0c-.9.4-1.8.7-2.7.9,1.3.3,2.6.5,3.9.5s.4,0,.6,0c.7,0,1.5-.1,2.1-.2.9-.2,1.7-.5,2.5-.8,1.5-.7,2.8-1.8,3.6-3.3.7-1.2,1-2.6,1-3.9s-.2-2.2-.6-3.3c0,0,0,0,0,0ZM3.4,8.4c.7-1.2,1.7-2.1,3-2.8.2-.1.4-.2.7-.3.6-.2,1.3-.4,2-.5.7-.1,1.3-.2,2-.2.4,0,.8,0,1.1,0,.9-.4,1.8-.7,2.7-.9-1.3-.3-2.6-.5-3.9-.5-.2,0-.4,0-.6,0-.7,0-1.5.1-2.1.2-.9.2-1.7.5-2.5.8-1.5.7-2.8,1.8-3.6,3.3-.7,1.2-1,2.6-1,4s.2,2.2.6,3.3c.2-.7.5-1.3.9-2,0-.4-.1-.9-.1-1.3,0-1.2.3-2.3.8-3.3,0,0,0,0,0,0ZM23.5,10.1c.7.7,1.3,1.4,1.8,2.1,0,0,0,0,0,.1.6.9,1.1,1.8,1.4,2.7.3-.7.4-1.3.5-2-.3-.5-.6-1-.9-1.4-.5-.8-1.1-1.5-1.8-2.1-.7-.7-1.4-1.3-2.1-1.9-.8-.6-1.5-1.1-2.4-1.6-.8-.4-1.6-.8-2.4-1.2-.9,0-1.8.2-2.7.5,1.6.4,3.1,1,4.5,1.8,1.4.8,2.8,1.8,4,3h0,0Z"/>
</svg>